<svg width="24" height="24" viewBox="0 0 24 24" fill="none" xmlns="http://www.w3.org/2000/svg">
<path d="M12 6.50627C8.95981 6.50627 6.50624 8.95984 6.50624 12C6.50624 15.0402 8.95981 17.4938 12 17.4938C15.0402 17.4938 17.4937 15.0402 17.4937 12C17.4937 8.95984 15.0402 6.50627 12 6.50627ZM12 15.5706C10.0339 15.5706 8.42946 13.9661 8.42946 12C8.42946 10.0339 10.0339 8.42948 12 8.42948C13.9661 8.42948 15.5705 10.0339 15.5705 12C15.5705 13.9661 13.9661 15.5706 12 15.5706ZM17.7187 5.00091C17.0089 5.00091 16.4357 5.57412 16.4357 6.28394C16.4357 6.99377 17.0089 7.56698 17.7187 7.56698C18.4286 7.56698 19.0018 6.99644 19.0018 6.28394C19.002 6.11539 18.9689 5.94846 18.9045 5.7927C18.8401 5.63694 18.7456 5.49541 18.6265 5.37623C18.5073 5.25705 18.3658 5.16255 18.21 5.09814C18.0542 5.03374 17.8873 5.0007 17.7187 5.00091ZM22.7089 12C22.7089 10.5214 22.7223 9.05627 22.6393 7.58037C22.5562 5.86609 22.1652 4.34466 20.9116 3.09109C19.6554 1.83484 18.1366 1.44644 16.4223 1.36341C14.9437 1.28037 13.4786 1.29377 12.0027 1.29377C10.5241 1.29377 9.05892 1.28037 7.58303 1.36341C5.86874 1.44644 4.34731 1.83752 3.09374 3.09109C1.83749 4.34734 1.4491 5.86609 1.36606 7.58037C1.28303 9.05894 1.29642 10.5241 1.29642 12C1.29642 13.4759 1.28303 14.9438 1.36606 16.4197C1.4491 18.1339 1.84017 19.6554 3.09374 20.9089C4.34999 22.1652 5.86874 22.5536 7.58303 22.6366C9.0616 22.7197 10.5268 22.7063 12.0027 22.7063C13.4812 22.7063 14.9464 22.7197 16.4223 22.6366C18.1366 22.5536 19.658 22.1625 20.9116 20.9089C22.1679 19.6527 22.5562 18.1339 22.6393 16.4197C22.725 14.9438 22.7089 13.4786 22.7089 12ZM20.3518 18.3161C20.1562 18.8036 19.9205 19.1679 19.5429 19.5429C19.1652 19.9206 18.8036 20.1563 18.3161 20.3518C16.9071 20.9116 13.5616 20.7857 12 20.7857C10.4384 20.7857 7.09017 20.9116 5.68124 20.3545C5.19374 20.1589 4.82946 19.9232 4.45446 19.5456C4.07678 19.1679 3.84106 18.8063 3.64553 18.3188C3.08839 16.9072 3.21428 13.5616 3.21428 12C3.21428 10.4384 3.08839 7.09019 3.64553 5.68127C3.84106 5.19377 4.07678 4.82948 4.45446 4.45448C4.83214 4.07948 5.19374 3.84109 5.68124 3.64555C7.09017 3.08841 10.4384 3.2143 12 3.2143C13.5616 3.2143 16.9098 3.08841 18.3187 3.64555C18.8062 3.84109 19.1705 4.0768 19.5455 4.45448C19.9232 4.83216 20.1589 5.19377 20.3545 5.68127C20.9116 7.09019 20.7857 10.4384 20.7857 12C20.7857 13.5616 20.9116 16.9072 20.3518 18.3161Z" fill="#F9F9F9"/>
</svg>
