<svg width="24" height="24" viewBox="0 0 24 24" fill="none" xmlns="http://www.w3.org/2000/svg">
<path d="M21.8572 1.28571H2.14286C1.66876 1.28571 1.28572 1.66874 1.28572 2.14285V21.8571C1.28572 22.3312 1.66876 22.7143 2.14286 22.7143H21.8572C22.3313 22.7143 22.7143 22.3312 22.7143 21.8571V2.14285C22.7143 1.66874 22.3313 1.28571 21.8572 1.28571ZM21 21H16.0688V14.4161H18.8545L19.2723 11.183H16.0688V9.11785C16.0688 8.18035 16.3286 7.54285 17.6705 7.54285H19.3822V4.64999C19.0848 4.60981 18.0697 4.52142 16.8857 4.52142C14.4161 4.52142 12.7259 6.02946 12.7259 8.79642V11.1803H9.93483V14.4134H12.7286V21H3.00001V2.99999H21V21Z" fill="#F9F9F9"/>
</svg>
